<svg xmlns="http://www.w3.org/2000/svg" width="400" height="600" viewBox="0 0 400 600">
  <!-- Definitions -->
  <defs>
    <!-- Snow pattern -->
    <pattern id="snowPattern" x="0" y="0" width="50" height="50" patternUnits="userSpaceOnUse">
      <circle cx="10" cy="10" r="2" fill="#FFFFFF" opacity="0.6"/>
      <circle cx="25" cy="30" r="1.5" fill="#FFFFFF" opacity="0.5"/>
      <circle cx="40" cy="15" r="1.8" fill="#FFFFFF" opacity="0.7"/>
    </pattern>
    
    <!-- Holly pattern -->
    <pattern id="hollyPattern" x="0" y="0" width="100" height="100" patternUnits="userSpaceOnUse">
      <path d="M10,10 Q15,0 20,10 T30,10 L20,20 Z" fill="#2E7D32" opacity="0.8"/>
      <circle cx="20" cy="15" r="2" fill="#C62828"/>
    </pattern>

    <!-- 闪烁动画定义 -->
    <animate id="twinkle1" attributeName="opacity"
             values="1;0.3;1" dur="2s"
             repeatCount="indefinite"/>
    <animate id="twinkle2" attributeName="opacity"
             values="0.3;1;0.3" dur="1.5s"
             repeatCount="indefinite"/>
    <animate id="twinkle3" attributeName="opacity"
             values="0.6;1;0.6" dur="2.5s"
             repeatCount="indefinite"/>
             
    <!-- 星星的光芒效果 -->
    <filter id="starGlow" x="-50%" y="-50%" width="200%" height="200%">
      <feGaussianBlur stdDeviation="2" result="coloredBlur"/>
      <feMerge>
        <feMergeNode in="coloredBlur"/>
        <feMergeNode in="SourceGraphic"/>
      </feMerge>
    </filter>
  </defs>

  <!-- Background with gradient -->
  <rect x="0" y="0" width="400" height="600" fill="#FFEBEE"/>
  <rect x="0" y="0" width="400" height="600" fill="url(#snowPattern)"/>
  
  <!-- Decorative frame -->
  <rect x="20" y="20" width="360" height="560" fill="none" 
        stroke="#C62828" stroke-width="3" rx="20"/>
  
  <!-- Holly decorations in corners -->
  <g transform="translate(30,30) scale(0.8)">
    <use href="#hollyPattern"/>
  </g>
  <g transform="translate(330,30) scale(0.8) rotate(90)">
    <use href="#hollyPattern"/>
  </g>
  <g transform="translate(30,530) scale(0.8) rotate(-90)">
    <use href="#hollyPattern"/>
  </g>
  <g transform="translate(330,530) scale(0.8) rotate(180)">
    <use href="#hollyPattern"/>
  </g>

  <!-- Christmas tree -->
  <path d="M200,200 L160,300 L240,300 Z" fill="#2E7D32"/>
  <path d="M200,150 L150,270 L250,270 Z" fill="#2E7D32"/>
  <path d="M200,100 L140,240 L260,240 Z" fill="#2E7D32"/>
  <rect x="190" y="300" width="20" height="30" fill="#8B4513"/>
  
  <!-- 闪烁的装饰球 -->
  <g>
    <circle cx="180" cy="260" r="5" fill="#FFA000">
      <animate attributeName="opacity" values="1;0.3;1" dur="2s" repeatCount="indefinite"/>
    </circle>
    <circle cx="220" cy="240" r="5" fill="#C62828">
      <animate attributeName="opacity" values="0.3;1;0.3" dur="1.5s" repeatCount="indefinite"/>
    </circle>
    <circle cx="190" cy="220" r="5" fill="#FFA000">
      <animate attributeName="opacity" values="0.6;1;0.6" dur="2.5s" repeatCount="indefinite"/>
    </circle>
    <circle cx="210" cy="180" r="5" fill="#C62828">
      <animate attributeName="opacity" values="1;0.4;1" dur="1.8s" repeatCount="indefinite"/>
    </circle>
  </g>
  
  <!-- 闪烁的星星 -->
  <g filter="url(#starGlow)">
    <path d="M200,80 L205,95 L220,95 L210,105 L215,120 L200,110 L185,120 L190,105 L180,95 L195,95 Z" 
          fill="#FFA000">
      <animate attributeName="opacity" values="1;0.5;1" dur="1.5s" repeatCount="indefinite"/>
    </path>
  </g>

  <!-- 额外的小星星 -->
  <g>
    <circle cx="150" cy="150" r="2" fill="#FFA000">
      <animate attributeName="opacity" values="1;0.2;1" dur="1.3s" repeatCount="indefinite"/>
    </circle>
    <circle cx="250" cy="160" r="2" fill="#FFA000">
      <animate attributeName="opacity" values="0.2;1;0.2" dur="1.7s" repeatCount="indefinite"/>
    </circle>
    <circle cx="170" cy="130" r="2" fill="#FFA000">
      <animate attributeName="opacity" values="0.5;1;0.5" dur="2s" repeatCount="indefinite"/>
    </circle>
  </g>

  <!-- Text -->
  <text x="200" y="380" text-anchor="middle" font-family="Georgia" font-size="24" fill="#C62828">
    Merry Christmas
  </text>
  
  <text x="200" y="420" text-anchor="middle" font-family="Georgia" font-size="16" fill="#333333">
    <tspan x="200" dy="0">Wishing you and your loved ones</tspan>
    <tspan x="200" dy="25">peace, joy, and happiness</tspan>
    <tspan x="200" dy="25">this holiday season</tspan>
  </text>
  
  <!-- Year -->
  <text x="200" y="520" text-anchor="middle" font-family="Georgia" font-size="18" fill="#C62828">
    2024
  </text>
</svg>