<svg width="400" height="600" viewBox="0 0 400 600" xmlns="http://www.w3.org/2000/svg">
  <!-- Card Background with Gradient -->
  <defs>
    <linearGradient id="backgroundGrad" x1="0%" y1="0%" x2="0%" y2="100%">
      <stop offset="0%" style="stop-color:#FFE4E8;stop-opacity:1" />
      <stop offset="100%" style="stop-color:#FFF0F3;stop-opacity:1" />
    </linearGradient>
    
    <!-- Decorative Heart Path -->
    <path id="heartPath" 
          d="M 20,40 C -10,10 -10,70 20,100 C 50,70 50,10 20,40" 
          transform="scale(0.5)" />
  </defs>

  <!-- Main Background -->
  <rect x="0" y="0" width="400" height="600" fill="url(#backgroundGrad)" />
  
  <!-- Decorative Border -->
  <rect x="20" y="20" width="360" height="560" 
        fill="none" stroke="#D81B60" stroke-width="2" 
        rx="10" ry="10" />

  <!-- Title -->
  <text x="200" y="80" text-anchor="middle" 
        fill="#D81B60" font-family="cursive" font-size="24">
    From My Heart to Yours
  </text>

  <!-- Main Message -->
  <text x="200" y="180" text-anchor="middle" 
        fill="#1A1A1A" font-family="serif" font-size="16">
    <tspan x="200" dy="0">Like the first light of dawn</tspan>
    <tspan x="200" dy="25">breaking through morning mist,</tspan>
    <tspan x="200" dy="25">my feelings for you grow</tspan>
    <tspan x="200" dy="25">tender and bright.</tspan>
  </text>

  <!-- Decorative Elements -->
  <g transform="translate(200,300)">
    <!-- Central Heart -->
    <path d="M0,30 C-20,0 -50,0 -50,20 C-50,40 -20,60 0,80 C20,60 50,40 50,20 C50,0 20,0 0,30" 
          fill="#FF80AB" opacity="0.6">
      <animate attributeName="opacity" 
               values="0.6;0.8;0.6" 
               dur="3s" 
               repeatCount="indefinite" />
    </path>
  </g>

  <!-- Bottom Message -->
  <text x="200" y="500" text-anchor="middle" 
        fill="#1A1A1A" font-family="serif" font-size="14">
    <tspan x="200" dy="0">With hope and tenderness,</tspan>
    <tspan x="200" dy="25">Yours truly</tspan>
  </text>

  <!-- Floating Hearts Animation -->
  <g class="floating-hearts">
    <use href="#heartPath" x="50" y="150" fill="#FF80AB" opacity="0.3">
      <animate attributeName="y" 
               values="150;140;150" 
               dur="4s" 
               repeatCount="indefinite" />
    </use>
    <use href="#heartPath" x="300" y="400" fill="#FF80AB" opacity="0.3">
      <animate attributeName="y" 
               values="400;390;400" 
               dur="3s" 
               repeatCount="indefinite" />
    </use>
  </g>
</svg>