<svg xmlns="http://www.w3.org/2000/svg" width="400" height="600" viewBox="0 0 400 600">
  <!-- Background with soft gradient -->
  <defs>
    <linearGradient id="cardBg" x1="0%" y1="0%" x2="0%" y2="100%">
      <stop offset="0%" style="stop-color:#E8F5E9"/>
      <stop offset="100%" style="stop-color:#C8E6C9"/>
    </linearGradient>
    
    <!-- Decorative pattern -->
    <pattern id="gratitudePattern" x="0" y="0" width="40" height="40" patternUnits="userSpaceOnUse">
      <path d="M20 5C12.8 5 7 10.8 7 18s5.8 13 13 13 13-5.8 13-13S27.2 5 20 5z" 
            fill="none" stroke="#388E3C" stroke-width="1" opacity="0.2"/>
    </pattern>
  </defs>

  <!-- Card background -->
  <rect x="0" y="0" width="400" height="600" fill="url(#cardBg)"/>
  <rect x="0" y="0" width="400" height="600" fill="url(#gratitudePattern)"/>
  
  <!-- Decorative elements -->
  <path d="M30,30 C50,5 70,5 90,30 C110,5 130,5 150,30" 
        fill="none" stroke="#388E3C" stroke-width="2" opacity="0.5"/>
  <path d="M250,570 C270,545 290,545 310,570 C330,545 350,545 370,570" 
        fill="none" stroke="#388E3C" stroke-width="2" opacity="0.5"/>

  <!-- Main content -->
  <text x="200" y="150" text-anchor="middle" font-family="Georgia" font-size="32" fill="#388E3C">
    Thank You
  </text>
  
  <text x="200" y="250" text-anchor="middle" font-family="Georgia" font-size="16" fill="#333333">
    <tspan x="200" dy="0">Your kindness and support</tspan>
    <tspan x="200" dy="25">mean more than words can express.</tspan>
    <tspan x="200" dy="25">I am truly grateful for your</tspan>
    <tspan x="200" dy="25">thoughtfulness and generosity.</tspan>
  </text>
  
  <!-- Decorative heart symbol -->
  <path d="M200,400 C150,360 100,400 200,480 C300,400 250,360 200,400" 
        fill="#388E3C" opacity="0.3"/>
  
  <!-- Signature line -->
  <text x="200" y="520" text-anchor="middle" font-family="Cursive" font-size="18" fill="#333333">
    With sincere appreciation
  </text>
</svg>